<mxfile host="app.diagrams.net" agent="Mozilla/5.0 (Windows NT 10.0; Win64; x64) AppleWebKit/537.36 (KHTML, like Gecko) Chrome/131.0.0.0 Safari/537.36" version="25.0.3">
  <diagram id="C5RBs43oDa-KdzZeNtuy" name="Page-1">
    <mxGraphModel dx="2670" dy="757" grid="1" gridSize="10" guides="1" tooltips="1" connect="1" arrows="1" fold="1" page="1" pageScale="1" pageWidth="827" pageHeight="1169" math="0" shadow="0">
      <root>
        <mxCell id="WIyWlLk6GJQsqaUBKTNV-0" />
        <mxCell id="WIyWlLk6GJQsqaUBKTNV-1" parent="WIyWlLk6GJQsqaUBKTNV-0" />
        <mxCell id="dJsvglOdwiNYgGMGU90C-6" style="edgeStyle=orthogonalEdgeStyle;rounded=0;orthogonalLoop=1;jettySize=auto;html=1;exitX=0.5;exitY=1;exitDx=0;exitDy=0;exitPerimeter=0;" edge="1" parent="WIyWlLk6GJQsqaUBKTNV-1" source="dJsvglOdwiNYgGMGU90C-0" target="dJsvglOdwiNYgGMGU90C-1">
          <mxGeometry relative="1" as="geometry" />
        </mxCell>
        <mxCell id="dJsvglOdwiNYgGMGU90C-0" value="START" style="strokeWidth=2;html=1;shape=mxgraph.flowchart.start_1;whiteSpace=wrap;" vertex="1" parent="WIyWlLk6GJQsqaUBKTNV-1">
          <mxGeometry x="350" y="50" width="100" height="60" as="geometry" />
        </mxCell>
        <mxCell id="dJsvglOdwiNYgGMGU90C-1" value="READ N" style="shape=parallelogram;html=1;strokeWidth=2;perimeter=parallelogramPerimeter;whiteSpace=wrap;rounded=1;arcSize=12;size=0.23;" vertex="1" parent="WIyWlLk6GJQsqaUBKTNV-1">
          <mxGeometry x="315" y="160" width="170" height="60" as="geometry" />
        </mxCell>
        <mxCell id="dJsvglOdwiNYgGMGU90C-9" style="edgeStyle=orthogonalEdgeStyle;rounded=0;orthogonalLoop=1;jettySize=auto;html=1;exitX=0.5;exitY=1;exitDx=0;exitDy=0;exitPerimeter=0;entryX=0.5;entryY=0;entryDx=0;entryDy=0;" edge="1" parent="WIyWlLk6GJQsqaUBKTNV-1" source="dJsvglOdwiNYgGMGU90C-2" target="dJsvglOdwiNYgGMGU90C-8">
          <mxGeometry relative="1" as="geometry" />
        </mxCell>
        <mxCell id="dJsvglOdwiNYgGMGU90C-10" value="YES" style="edgeLabel;html=1;align=center;verticalAlign=middle;resizable=0;points=[];" vertex="1" connectable="0" parent="dJsvglOdwiNYgGMGU90C-9">
          <mxGeometry x="-0.2067" y="2" relative="1" as="geometry">
            <mxPoint as="offset" />
          </mxGeometry>
        </mxCell>
        <mxCell id="dJsvglOdwiNYgGMGU90C-28" style="edgeStyle=orthogonalEdgeStyle;rounded=0;orthogonalLoop=1;jettySize=auto;html=1;exitX=0;exitY=0.5;exitDx=0;exitDy=0;exitPerimeter=0;entryX=1;entryY=0.5;entryDx=0;entryDy=0;" edge="1" parent="WIyWlLk6GJQsqaUBKTNV-1" source="dJsvglOdwiNYgGMGU90C-2" target="dJsvglOdwiNYgGMGU90C-27">
          <mxGeometry relative="1" as="geometry" />
        </mxCell>
        <mxCell id="dJsvglOdwiNYgGMGU90C-30" value="NO" style="edgeLabel;html=1;align=center;verticalAlign=middle;resizable=0;points=[];" vertex="1" connectable="0" parent="dJsvglOdwiNYgGMGU90C-28">
          <mxGeometry x="-0.1644" relative="1" as="geometry">
            <mxPoint x="1" as="offset" />
          </mxGeometry>
        </mxCell>
        <mxCell id="dJsvglOdwiNYgGMGU90C-2" value="N &amp;gt; 0" style="strokeWidth=2;html=1;shape=mxgraph.flowchart.decision;whiteSpace=wrap;" vertex="1" parent="WIyWlLk6GJQsqaUBKTNV-1">
          <mxGeometry x="345" y="260" width="110" height="110" as="geometry" />
        </mxCell>
        <mxCell id="dJsvglOdwiNYgGMGU90C-24" style="edgeStyle=orthogonalEdgeStyle;rounded=0;orthogonalLoop=1;jettySize=auto;html=1;exitX=0.5;exitY=1;exitDx=0;exitDy=0;entryX=0.5;entryY=0;entryDx=0;entryDy=0;" edge="1" parent="WIyWlLk6GJQsqaUBKTNV-1" source="dJsvglOdwiNYgGMGU90C-8" target="dJsvglOdwiNYgGMGU90C-23">
          <mxGeometry relative="1" as="geometry" />
        </mxCell>
        <mxCell id="dJsvglOdwiNYgGMGU90C-8" value="&lt;div&gt;COUNTER = N + 1&lt;/div&gt;&lt;div&gt;FACTORIAL = 1&lt;/div&gt;" style="rounded=1;whiteSpace=wrap;html=1;absoluteArcSize=1;arcSize=14;strokeWidth=2;" vertex="1" parent="WIyWlLk6GJQsqaUBKTNV-1">
          <mxGeometry x="280" y="430" width="240" height="60" as="geometry" />
        </mxCell>
        <mxCell id="dJsvglOdwiNYgGMGU90C-11" value="FACTORIAL = FACTORIAL * COUNTER" style="rounded=1;whiteSpace=wrap;html=1;absoluteArcSize=1;arcSize=14;strokeWidth=2;" vertex="1" parent="WIyWlLk6GJQsqaUBKTNV-1">
          <mxGeometry x="274.25" y="640" width="251.5" height="55" as="geometry" />
        </mxCell>
        <mxCell id="dJsvglOdwiNYgGMGU90C-13" style="edgeStyle=orthogonalEdgeStyle;rounded=0;orthogonalLoop=1;jettySize=auto;html=1;exitX=0.5;exitY=1;exitDx=0;exitDy=0;entryX=0.5;entryY=0;entryDx=0;entryDy=0;entryPerimeter=0;" edge="1" parent="WIyWlLk6GJQsqaUBKTNV-1" source="dJsvglOdwiNYgGMGU90C-1" target="dJsvglOdwiNYgGMGU90C-2">
          <mxGeometry relative="1" as="geometry" />
        </mxCell>
        <mxCell id="dJsvglOdwiNYgGMGU90C-16" style="edgeStyle=orthogonalEdgeStyle;rounded=0;orthogonalLoop=1;jettySize=auto;html=1;exitX=0.5;exitY=1;exitDx=0;exitDy=0;exitPerimeter=0;" edge="1" parent="WIyWlLk6GJQsqaUBKTNV-1" source="dJsvglOdwiNYgGMGU90C-14" target="dJsvglOdwiNYgGMGU90C-15">
          <mxGeometry relative="1" as="geometry" />
        </mxCell>
        <mxCell id="dJsvglOdwiNYgGMGU90C-20" value="YES" style="edgeLabel;html=1;align=center;verticalAlign=middle;resizable=0;points=[];" vertex="1" connectable="0" parent="dJsvglOdwiNYgGMGU90C-16">
          <mxGeometry x="-0.12" y="-1" relative="1" as="geometry">
            <mxPoint as="offset" />
          </mxGeometry>
        </mxCell>
        <mxCell id="dJsvglOdwiNYgGMGU90C-26" style="edgeStyle=orthogonalEdgeStyle;rounded=0;orthogonalLoop=1;jettySize=auto;html=1;exitX=1;exitY=0.5;exitDx=0;exitDy=0;exitPerimeter=0;entryX=1;entryY=0.5;entryDx=0;entryDy=0;" edge="1" parent="WIyWlLk6GJQsqaUBKTNV-1" source="dJsvglOdwiNYgGMGU90C-14" target="dJsvglOdwiNYgGMGU90C-23">
          <mxGeometry relative="1" as="geometry">
            <Array as="points">
              <mxPoint x="700" y="810" />
              <mxPoint x="700" y="568" />
            </Array>
          </mxGeometry>
        </mxCell>
        <mxCell id="dJsvglOdwiNYgGMGU90C-33" value="NO" style="edgeLabel;html=1;align=center;verticalAlign=middle;resizable=0;points=[];" vertex="1" connectable="0" parent="dJsvglOdwiNYgGMGU90C-26">
          <mxGeometry x="-0.6808" relative="1" as="geometry">
            <mxPoint x="-1" as="offset" />
          </mxGeometry>
        </mxCell>
        <mxCell id="dJsvglOdwiNYgGMGU90C-14" value="COUNTER = 1" style="strokeWidth=2;html=1;shape=mxgraph.flowchart.decision;whiteSpace=wrap;" vertex="1" parent="WIyWlLk6GJQsqaUBKTNV-1">
          <mxGeometry x="331.25" y="750" width="137.5" height="120" as="geometry" />
        </mxCell>
        <mxCell id="dJsvglOdwiNYgGMGU90C-15" value="PRINT FACTORIAL" style="shape=parallelogram;html=1;strokeWidth=2;perimeter=parallelogramPerimeter;whiteSpace=wrap;rounded=1;arcSize=12;size=0.23;" vertex="1" parent="WIyWlLk6GJQsqaUBKTNV-1">
          <mxGeometry x="302.5" y="940" width="195" height="60" as="geometry" />
        </mxCell>
        <mxCell id="dJsvglOdwiNYgGMGU90C-18" style="edgeStyle=orthogonalEdgeStyle;rounded=0;orthogonalLoop=1;jettySize=auto;html=1;exitX=0.5;exitY=1;exitDx=0;exitDy=0;entryX=0.5;entryY=0;entryDx=0;entryDy=0;entryPerimeter=0;" edge="1" parent="WIyWlLk6GJQsqaUBKTNV-1" source="dJsvglOdwiNYgGMGU90C-11" target="dJsvglOdwiNYgGMGU90C-14">
          <mxGeometry relative="1" as="geometry" />
        </mxCell>
        <mxCell id="dJsvglOdwiNYgGMGU90C-21" value="END" style="strokeWidth=2;html=1;shape=mxgraph.flowchart.terminator;whiteSpace=wrap;" vertex="1" parent="WIyWlLk6GJQsqaUBKTNV-1">
          <mxGeometry x="350" y="1050" width="100" height="60" as="geometry" />
        </mxCell>
        <mxCell id="dJsvglOdwiNYgGMGU90C-22" style="edgeStyle=orthogonalEdgeStyle;rounded=0;orthogonalLoop=1;jettySize=auto;html=1;exitX=0.5;exitY=1;exitDx=0;exitDy=0;entryX=0.5;entryY=0;entryDx=0;entryDy=0;entryPerimeter=0;" edge="1" parent="WIyWlLk6GJQsqaUBKTNV-1" source="dJsvglOdwiNYgGMGU90C-15" target="dJsvglOdwiNYgGMGU90C-21">
          <mxGeometry relative="1" as="geometry" />
        </mxCell>
        <mxCell id="dJsvglOdwiNYgGMGU90C-25" style="edgeStyle=orthogonalEdgeStyle;rounded=0;orthogonalLoop=1;jettySize=auto;html=1;exitX=0.5;exitY=1;exitDx=0;exitDy=0;entryX=0.5;entryY=0;entryDx=0;entryDy=0;" edge="1" parent="WIyWlLk6GJQsqaUBKTNV-1" source="dJsvglOdwiNYgGMGU90C-23" target="dJsvglOdwiNYgGMGU90C-11">
          <mxGeometry relative="1" as="geometry" />
        </mxCell>
        <mxCell id="dJsvglOdwiNYgGMGU90C-23" value="COUNTER = COUNTER - 1" style="rounded=1;whiteSpace=wrap;html=1;absoluteArcSize=1;arcSize=14;strokeWidth=2;" vertex="1" parent="WIyWlLk6GJQsqaUBKTNV-1">
          <mxGeometry x="274.25" y="540" width="251.5" height="55" as="geometry" />
        </mxCell>
        <mxCell id="dJsvglOdwiNYgGMGU90C-32" style="edgeStyle=orthogonalEdgeStyle;rounded=0;orthogonalLoop=1;jettySize=auto;html=1;exitX=0.5;exitY=0;exitDx=0;exitDy=0;entryX=0;entryY=0.5;entryDx=0;entryDy=0;" edge="1" parent="WIyWlLk6GJQsqaUBKTNV-1" source="dJsvglOdwiNYgGMGU90C-27" target="dJsvglOdwiNYgGMGU90C-1">
          <mxGeometry relative="1" as="geometry">
            <Array as="points">
              <mxPoint x="28" y="190" />
            </Array>
          </mxGeometry>
        </mxCell>
        <mxCell id="dJsvglOdwiNYgGMGU90C-27" value="PRINT &quot;PLEASE ENTER NUMBER POSITIVE&quot;&amp;nbsp;" style="shape=parallelogram;html=1;strokeWidth=2;perimeter=parallelogramPerimeter;whiteSpace=wrap;rounded=1;arcSize=12;size=0.23;" vertex="1" parent="WIyWlLk6GJQsqaUBKTNV-1">
          <mxGeometry x="-200" y="275" width="455" height="80" as="geometry" />
        </mxCell>
      </root>
    </mxGraphModel>
  </diagram>
</mxfile>
